<svg id="visual" viewBox="0 0 960 540" width="960" height="540" xmlns="http://www.w3.org/2000/svg" xmlns:xlink="http://www.w3.org/1999/xlink" version="1.1"><path d="M0 369L32 370.7C64 372.3 128 375.7 192 386.2C256 396.7 320 414.3 384 421.7C448 429 512 426 576 408.3C640 390.7 704 358.3 768 345.7C832 333 896 340 928 343.5L960 347L960 541L928 541C896 541 832 541 768 541C704 541 640 541 576 541C512 541 448 541 384 541C320 541 256 541 192 541C128 541 64 541 32 541L0 541Z" fill="#73A82E" stroke-linecap="round" stroke-linejoin="miter"></path></svg>